<?xml version="1.0" encoding="UTF-8"?><svg id="Layer_2" xmlns="http://www.w3.org/2000/svg" xmlns:xlink="http://www.w3.org/1999/xlink" viewBox="0 0 760.31 214.89"><defs><style>.cls-1{fill:#20e85a;}.cls-2{fill:#f7f7f5;}.cls-3{fill:url(#linear-gradient);fill-rule:evenodd;}</style><linearGradient id="linear-gradient" x1="-1596.65" y1="1189.55" x2="-1596.46" y2="1189.32" gradientTransform="translate(1468929.3674 1094375.7872) scale(920 -920)" gradientUnits="userSpaceOnUse"><stop offset="0" stop-color="#72ff82"/><stop offset=".48" stop-color="#38ef62"/><stop offset="1" stop-color="#00c94c"/></linearGradient></defs><g id="Layer_1-2"><path class="cls-3" d="M107.45,0l107.45,107.45-107.45,107.45L0,107.45,107.45,0ZM107.45,47.88c0,28.5-10.04,49.52-59.56,59.56,49.52,10.04,59.56,31.07,59.56,59.56,0-28.5,10.04-49.52,59.56-59.56-49.52-10.04-59.56-31.07-59.56-59.56Z"/><path class="cls-2" d="M263.43,103.19h10.96v-22.56h16.79l14.67,22.56h12.34l-15.9-24.04c9.18-2.68,14.76-8.68,14.76-17,0-11.4-9.88-18.56-25.63-18.56h-28v59.59ZM274.39,73.07v-21.8h16.54c9.48,0,15.31,4.16,15.31,10.88s-5.78,10.92-15.26,10.92h-16.59Z"/><path class="cls-2" d="M341.49,103.19h45.2v-7.8h-35.19v-18.72l29.28-.11v-7.72l-29.28.11v-17.56h35.19v-7.8h-45.2v59.59Z"/><path class="cls-2" d="M429.09,102.73h12.43l24.82-59.59h-10.94l-13.37,33.6c-1.68,4.32-3.77,10.08-6.57,17.92-2.89-7.84-5.03-13.6-6.71-17.92l-13.74-33.6h-11.13l25.2,59.59Z"/><path class="cls-2" d="M556.45,103.19h10v-32.24c0-2.64-.05-7.8-.36-14.8,4.46,6.8,8.11,12.2,10,14.84l22.93,32.2h11.17v-59.59h-10.05v35.48c0,2.16.09,7.24.27,11.56-2.7-4.24-5.68-8.76-7.25-11l-25.63-36.04h-11.08v59.59Z"/><path class="cls-2" d="M661.68,103.41c16,0,26.45-8.92,26.45-21.36v-39.2h-9.88v38.48c0,8.16-6.3,14.04-16.58,14.04s-16.53-5.88-16.53-14.04v-38.48h-9.88v39.2c0,12.44,10.41,21.36,26.41,21.36Z"/><path class="cls-1" d="M279.15,137.52l13.37.04v34.13h7.26v-34.13l13.13-.09v-5.14l-33.76.04v5.14Z"/><path class="cls-1" d="M353.37,171.96h7.22v-14.86h11.06l9.66,14.86h8.13l-10.48-15.84c6.05-1.77,9.73-5.72,9.73-11.2,0-7.51-6.51-12.23-16.89-12.23h-18.45v39.27ZM360.59,152.12v-14.36h10.9c6.25,0,10.09,2.74,10.09,7.17s-3.81,7.19-10.05,7.19h-10.93Z"/><path class="cls-1" d="M436.31,132.42h-7.22v39.27h7.22v-39.27Z"/><path class="cls-1" d="M497.09,172.32c11.17,0,19.54-6.83,19.54-16.18v-4.51h-17.95v4.88h11.27c-.06,6.25-5.62,10.46-12.76,10.46-8.64,0-14.35-5.98-14.35-14.89s5.68-14.94,14.32-14.94c6.26,0,11.02,3.29,12.3,8.14h6.87c-1.43-7.99-9.37-13.49-19.26-13.49-12.18,0-21.03,8.2-21.03,20.29s8.73,20.24,21.06,20.24Z"/><path class="cls-1" d="M573.61,172.6c10.77,0,18.84-6.83,18.84-16.18v-4.51h-17.31v4.88h10.86c-.06,6.25-5.42,10.46-12.3,10.46-8.33,0-13.83-5.98-13.83-14.89s5.47-14.94,13.8-14.94c6.03,0,10.62,3.29,11.86,8.14h6.62c-1.38-7.99-9.04-13.49-18.57-13.49-11.74,0-20.28,8.2-20.28,20.29s8.42,20.24,20.31,20.24Z"/><path class="cls-1" d="M633.49,171.78h30.34v-5.14h-23.62v-12.33h21.86v-5.09h-21.86v-11.57h23.62v-5.14h-30.34v39.27Z"/><path class="cls-1" d="M704.26,171.69h7.22v-14.86h11.06l9.66,14.86h8.13l-10.48-15.84c6.05-1.77,9.73-5.72,9.73-11.2,0-7.51-6.51-12.23-16.89-12.23h-18.45v39.27ZM711.48,151.84v-14.36h10.9c6.25,0,10.09,2.74,10.09,7.17s-3.81,7.19-10.05,7.19h-10.93Z"/><path class="cls-2" d="M487.33,103.55h45.2v-7.8h-35.19v-18.72l29.28-.11v-7.72l-29.28.11v-17.56h35.19v-7.8h-45.2v59.59Z"/><path class="cls-2" d="M715.11,103.39h45.2v-7.8h-35.19v-18.72l29.28-.11v-7.72l-29.28.11v-17.56h35.19v-7.8h-45.2v59.59Z"/></g></svg>